<svg width="13" height="10" viewBox="0 0 13 10" fill="none" xmlns="http://www.w3.org/2000/svg">
<path d="M7.35892 9.13381V7.47114C7.35892 7.24554 7.59607 7.06282 7.88846 7.06282C8.93181 7.06282 9.49941 6.23772 9.57819 4.60896H7.88846C7.59611 4.60896 7.35892 4.42598 7.35892 4.20064V0.689831C7.35892 0.464316 7.59607 0.281593 7.88846 0.281593H12.3935C12.6858 0.281593 12.9231 0.464516 12.9231 0.689831V4.20067C12.9231 4.98137 12.8209 5.6978 12.6202 6.33052C12.4141 6.97915 12.0977 7.54622 11.68 8.01615C11.2504 8.49906 10.7125 8.87801 10.0823 9.14192C9.44736 9.40751 8.70924 9.54231 7.88824 9.54231C7.59611 9.54214 7.35892 9.35924 7.35892 9.13381ZM0.529432 7.06267C0.23708 7.06267 0 7.24554 0 7.47083V9.13384C0 9.35924 0.23708 9.54199 0.529432 9.54199C1.35003 9.54199 2.08852 9.40717 2.72309 9.14161C3.35362 8.87772 3.89138 8.49909 4.32093 8.01583C4.7389 7.5459 5.05527 6.97881 5.2614 6.32987C5.46217 5.69714 5.56416 4.98069 5.56416 4.20032V0.689489C5.56416 0.463974 5.32686 0.28125 5.03462 0.28125H0.529432C0.23708 0.28125 0 0.464145 0 0.689489V4.20032C0 4.42581 0.23708 4.60865 0.529432 4.60865H2.19543C2.11762 6.23755 1.5582 7.06267 0.529432 7.06267Z" fill="white"/>
</svg>
